<svg width="8" height="8" viewBox="0 0 8 8" fill="none" xmlns="http://www.w3.org/2000/svg">
<path d="M6.28571 6.85714H1.71429C1.56273 6.85714 1.41739 6.79694 1.31022 6.68978C1.20306 6.58261 1.14286 6.43727 1.14286 6.28571V1.71429C1.14286 1.56273 1.08265 1.41739 0.97549 1.31022C0.868326 1.20306 0.722981 1.14286 0.571429 1.14286C0.419876 1.14286 0.274531 1.20306 0.167368 1.31022C0.0602039 1.41739 0 1.56273 0 1.71429V6.28571C0 6.74037 0.180612 7.17641 0.502103 7.4979C0.823594 7.81939 1.25963 8 1.71429 8H6.28571C6.43727 8 6.58261 7.9398 6.68978 7.83263C6.79694 7.72547 6.85714 7.58012 6.85714 7.42857C6.85714 7.27702 6.79694 7.13167 6.68978 7.02451C6.58261 6.91735 6.43727 6.85714 6.28571 6.85714ZM7.95657 0.353714C7.91347 0.249109 7.84028 0.159653 7.74628 0.0966838C7.65228 0.0337143 7.54171 6.5067e-05 7.42857 0H4.28571C4.13416 0 3.98882 0.0602039 3.88165 0.167368C3.77449 0.274531 3.71429 0.419876 3.71429 0.571429C3.71429 0.722981 3.77449 0.868326 3.88165 0.97549C3.98882 1.08265 4.13416 1.14286 4.28571 1.14286H6.04914L2.45314 4.73886C2.34905 4.84663 2.29146 4.99097 2.29276 5.1408C2.29406 5.29063 2.35416 5.43395 2.4601 5.5399C2.56605 5.64584 2.70937 5.70594 2.8592 5.70724C3.00903 5.70854 3.15337 5.65095 3.26114 5.54686L6.85714 1.95086V3.71429C6.85714 3.86584 6.91735 4.01118 7.02451 4.11835C7.13167 4.22551 7.27702 4.28571 7.42857 4.28571C7.58012 4.28571 7.72547 4.22551 7.83263 4.11835C7.9398 4.01118 8 3.86584 8 3.71429V0.571429C7.9999 0.496716 7.98514 0.422749 7.95657 0.353714V0.353714Z" fill="white"/>
</svg>
